<svg width="227" height="37" fill="none" xmlns="http://www.w3.org/2000/svg"><g clip-path="url(#a)"><path d="M45.04 30.832c-2.292 3.57-9.373 5.726-9.373 5.726 1.188-2.224 8.588-8.988 6.02-16.495C39.419 13.435 34.04 6.182 22.08 5.02v4.359s-9.717 9.743-16.338 16.325c-3.255 3.235 2.15 6.923 3.44 6.666 14.39-2.86 15.478-3.59 16.51-4.53 2.386-2.174 3.095-5.897 3.095-5.897 3.291 4.617.201 8.718-2.407 10.427-3.354 1.453-1.463.852-14.36 4.188-2.881.745-6.722.236-9.201-2.136-3.146-3.01-4.26-8.502-.172-12.564l9.458-9.402L7.98.063l9.373 7.18V.062c16.951-1 26.643 10.19 29.168 19.08 1.36 4.786.813 8.12-1.48 11.689Z" fill="url(#b)"/><path d="M70.575 16.045v-.657c0-2.19-.967-3.003-3.574-3.003-1.846 0-3.486.5-5.185 1.533l-1.025-1.971c2.783-1.408 4.1-1.752 6.59-1.752 2.754 0 4.57.75 5.361 2.159.44.844.557 1.626.557 4.004v9.322H71.13l-.322-1.752c-1.113 1.44-3.046 2.19-5.624 2.19-3.369 0-5.185-1.564-5.185-4.536 0-2.722 1.699-4.348 5.243-5.068 1.348-.25 2.256-.344 5.332-.47Zm.058 4.63v-2.753c-2.431.094-3.222.188-4.423.406-2.314.407-3.486 1.47-3.486 3.129 0 1.658 1.055 2.502 3.105 2.502 1.553 0 2.812-.406 3.838-1.251.732-.594.966-1.095.966-2.033Zm7.017 5.005V10.633h2.109l.38 2.315c1.963-1.877 3.897-2.753 6.152-2.753 2.52 0 4.101.97 4.57 2.815 1.699-1.783 4.013-2.815 6.268-2.815 2.227 0 3.779.782 4.394 2.252.322.782.44 1.846.44 3.786v9.447h-2.666v-9.635c0-2.565-.674-3.441-2.695-3.441-1.787 0-4.1 1.251-5.478 2.94V25.68H88.46v-9.573c0-2.659-.674-3.503-2.666-3.503-1.787 0-4.1 1.251-5.478 2.94V25.68H77.65ZM105.82 33V10.633h2.109l.352 1.814c1.581-1.564 3.222-2.252 5.448-2.252 4.13 0 6.415 2.659 6.415 7.477 0 5.318-2.841 8.446-7.674 8.446-1.612 0-2.988-.282-3.984-.782v7.07L105.82 33Zm2.666-16.017v5.944c.966.626 2.138.939 3.544.939 1.904 0 3.398-.689 4.218-1.971.733-1.064 1.143-2.628 1.143-4.255 0-3.284-1.524-5.193-4.189-5.193-1.465 0-2.9.626-3.808 1.69-.703.844-.908 1.47-.908 2.846Zm14.721 8.697V10.633h2.109l.381 2.753c2.167-1.94 4.452-2.878 7.03-2.878l-.205 2.409c-2.197-.032-4.863 1.22-6.65 3.097v9.666h-2.665Zm20.489-9.635v-.657c0-2.19-.966-3.003-3.574-3.003-1.845 0-3.485.5-5.184 1.533l-1.026-1.971c2.783-1.408 4.101-1.752 6.591-1.752 2.754 0 4.57.75 5.361 2.159.439.844.557 1.626.557 4.004v9.322h-2.168l-.322-1.752c-1.113 1.44-3.047 2.19-5.625 2.19-3.368 0-5.184-1.564-5.184-4.536 0-2.722 1.698-4.348 5.243-5.068 1.347-.25 2.255-.344 5.331-.47Zm.059 4.63v-2.753c-2.432.094-3.222.188-4.423.406-2.315.407-3.486 1.47-3.486 3.129 0 1.658 1.054 2.502 3.105 2.502 1.552 0 2.812-.406 3.837-1.251.733-.594.967-1.095.967-2.033Zm4.65 5.005-.088-1.94 9.227-10.855H149.4l.235-2.252h11.131l.176 1.94-9.227 10.854h10.193l-.234 2.253h-13.269Zm26.2-14.734V3.563L177.272 3v22.68h-2.08l-.381-1.846c-1.406 1.533-3.163 2.284-5.448 2.284-4.16 0-6.415-2.628-6.415-7.414 0-5.287 2.958-8.509 7.762-8.509 1.524 0 2.871.25 3.896.75Zm0 8.383v-5.975c-.966-.594-2.109-.907-3.515-.907-1.933 0-3.31.657-4.218 1.971-.761 1.126-1.172 2.597-1.172 4.286 0 3.316 1.494 5.162 4.16 5.162 1.494 0 2.929-.626 3.837-1.69.703-.844.908-1.47.908-2.846Zm7.164 6.35V10.634h2.109l.381 2.315c2.021-1.877 4.071-2.753 6.415-2.753 2.314 0 3.954.813 4.569 2.252.322.751.469 1.877.469 3.786v9.447h-2.666v-9.635c0-2.565-.732-3.441-2.9-3.441-1.874 0-4.276 1.251-5.712 2.94V25.68h-2.665Zm18.535 0V10.634h2.666V25.68h-2.666Zm1.377-21.115c.996 0 1.787.813 1.787 1.783 0 1.001-.82 1.783-1.816 1.783-.996 0-1.816-.813-1.816-1.783 0-1 .82-1.783 1.845-1.783Zm6.022 21.116V3.563L210.37 3v13.545l7.469-5.912h3.369l-8.173 6.413 8.935 8.634h-3.369l-8.231-8.008v8.008h-2.666Zm16.132 0V10.633h2.666V25.68h-2.666Zm1.377-21.116c.996 0 1.787.813 1.787 1.783 0 1.001-.82 1.783-1.816 1.783-.996 0-1.816-.813-1.816-1.783 0-1 .82-1.783 1.845-1.783Z" fill="#fff"/></g><defs><linearGradient id="b" x1="14.5" y1="3.997" x2="24" y2="39.5" gradientUnits="userSpaceOnUse"><stop stop-color="#fff"/><stop offset="1" stop-color="#fff" stop-opacity="0"/></linearGradient><clipPath id="a"><path fill="#fff" d="M0 0h227v37H0z"/></clipPath></defs></svg>