<svg width="40" height="40" viewBox="0 0 40 40" fill="none" xmlns="http://www.w3.org/2000/svg">
<rect width="40" height="40" rx="20" fill="#292929"/>
<path d="M19.7088 27.672C18.4368 27.672 17.2788 27.468 16.2348 27.06C15.1908 26.652 14.2908 26.076 13.5348 25.332C12.7788 24.588 12.1968 23.718 11.7888 22.722C11.3808 21.714 11.1768 20.616 11.1768 19.428C11.1768 18.24 11.3808 17.148 11.7888 16.152C12.1968 15.156 12.7788 14.292 13.5348 13.56C14.3028 12.828 15.2148 12.258 16.2708 11.85C17.3268 11.442 18.4968 11.238 19.7808 11.238C21.0168 11.238 22.1508 11.436 23.1828 11.832C24.2148 12.216 25.1028 12.762 25.8468 13.47C26.6028 14.166 27.1848 14.994 27.5928 15.954C28.0128 16.914 28.2228 17.97 28.2228 19.122C28.2228 20.154 28.0848 21.048 27.8088 21.804C27.5328 22.548 27.1368 23.118 26.6208 23.514C26.1168 23.91 25.4988 24.108 24.7668 24.108C24.0228 24.108 23.4288 23.886 22.9848 23.442C22.5528 22.998 22.3368 22.356 22.3368 21.516V20.49L22.4088 19.464L22.2468 17.124V15.072H24.2448V21.192C24.2448 21.648 24.3348 21.972 24.5148 22.164C24.7068 22.344 24.9288 22.434 25.1808 22.434C25.5048 22.434 25.7808 22.308 26.0088 22.056C26.2368 21.804 26.4048 21.432 26.5128 20.94C26.6328 20.448 26.6928 19.854 26.6928 19.158C26.6928 18.198 26.5248 17.322 26.1888 16.53C25.8648 15.738 25.3908 15.06 24.7668 14.496C24.1548 13.92 23.4228 13.482 22.5708 13.182C21.7308 12.87 20.8008 12.714 19.7808 12.714C18.7368 12.714 17.7888 12.882 16.9368 13.218C16.0848 13.542 15.3528 14.004 14.7408 14.604C14.1288 15.204 13.6548 15.918 13.3188 16.746C12.9948 17.562 12.8328 18.456 12.8328 19.428C12.8328 20.424 12.9948 21.336 13.3188 22.164C13.6428 22.992 14.1048 23.7 14.7048 24.288C15.3168 24.888 16.0428 25.35 16.8828 25.674C17.7228 26.01 18.6648 26.178 19.7088 26.178C20.2608 26.178 20.8428 26.112 21.4548 25.98C22.0668 25.86 22.6488 25.662 23.2008 25.386L23.6868 26.826C23.1348 27.102 22.4988 27.312 21.7788 27.456C21.0588 27.6 20.3688 27.672 19.7088 27.672ZM19.2408 24.108C18.4128 24.108 17.6748 23.916 17.0268 23.532C16.3788 23.136 15.8628 22.596 15.4788 21.912C15.1068 21.216 14.9208 20.418 14.9208 19.518C14.9208 18.63 15.1068 17.844 15.4788 17.16C15.8508 16.464 16.3608 15.924 17.0088 15.54C17.6688 15.156 18.4128 14.964 19.2408 14.964C20.0448 14.964 20.7468 15.144 21.3468 15.504C21.9468 15.852 22.4148 16.362 22.7508 17.034C23.0868 17.706 23.2548 18.534 23.2548 19.518C23.2548 20.502 23.0928 21.336 22.7688 22.02C22.4448 22.704 21.9828 23.226 21.3828 23.586C20.7828 23.934 20.0688 24.108 19.2408 24.108ZM19.6188 22.362C20.1348 22.362 20.5908 22.254 20.9868 22.038C21.3828 21.81 21.6948 21.48 21.9228 21.048C22.1628 20.616 22.2828 20.106 22.2828 19.518C22.2828 18.918 22.1628 18.414 21.9228 18.006C21.6948 17.586 21.3828 17.268 20.9868 17.052C20.5908 16.824 20.1348 16.71 19.6188 16.71C19.0908 16.71 18.6228 16.824 18.2148 17.052C17.8188 17.28 17.5068 17.604 17.2788 18.024C17.0628 18.444 16.9548 18.942 16.9548 19.518C16.9548 20.106 17.0628 20.61 17.2788 21.03C17.5068 21.45 17.8188 21.78 18.2148 22.02C18.6228 22.248 19.0908 22.362 19.6188 22.362Z" fill="white"/>
</svg>
