<svg width="227" height="37" viewBox="0 0 227 37" fill="none" xmlns="http://www.w3.org/2000/svg">
<g id="amlogo-white 2" clip-path="url(#clip0_804_197)">
<path id="Vector" d="M45.0403 30.8318C42.7478 34.4016 35.6674 36.5583 35.6674 36.5583C36.8548 34.3339 44.255 27.5701 41.6867 20.0626C39.4193 13.4348 34.0397 6.182 22.0812 5.01983V9.3788C22.0812 9.3788 12.3644 19.1224 5.7432 25.7036C2.48808 28.939 7.89293 32.6267 9.18277 32.3703C23.5726 29.5096 24.6608 28.7805 25.6927 27.8404C28.0787 25.6664 28.7883 21.9429 28.7883 21.9429C32.079 26.5605 28.989 30.6609 26.3806 32.3703C23.027 33.8233 24.9179 33.2217 12.0204 36.5583C9.13972 37.3034 5.29934 36.794 2.81957 34.4216C-0.326331 31.4118 -1.43967 25.92 2.64759 21.8575L12.1064 12.4557L7.97892 0.0625529L17.3518 7.24205V0.0625531C34.3031 -0.937394 43.995 10.2535 46.5201 19.1424C47.8798 23.9287 47.3327 27.2621 45.0403 30.8318Z" fill="url(#paint0_linear_804_197)"/>
<path id="Vector_2" d="M70.5746 16.0449V15.3879C70.5746 13.1981 69.608 12.3848 67.0009 12.3848C65.1555 12.3848 63.5151 12.8853 61.8161 13.9176L60.7909 11.9468C63.5737 10.5391 64.8919 10.195 67.3817 10.195C70.1352 10.195 71.9514 10.9458 72.7422 12.3535C73.1816 13.1981 73.2988 13.9802 73.2988 16.3577V25.6799H71.1312L70.8089 23.9281C69.6958 25.3671 67.7625 26.1178 65.1848 26.1178C61.8161 26.1178 60 24.5537 60 21.5819C60 18.8603 61.699 17.2336 65.2434 16.5141C66.5908 16.2638 67.4989 16.17 70.5746 16.0449ZM70.6332 20.6747V17.9218C68.2019 18.0157 67.411 18.1095 66.21 18.3285C63.8959 18.7352 62.7242 19.7988 62.7242 21.4567C62.7242 23.1147 63.7787 23.9593 65.8292 23.9593C67.3817 23.9593 68.6413 23.5527 69.6665 22.708C70.3988 22.1137 70.6332 21.6131 70.6332 20.6747ZM77.6498 25.6799V10.6329H79.7589L80.1397 12.9479C82.1023 11.0709 84.0356 10.195 86.2911 10.195C88.8103 10.195 90.3921 11.1647 90.8607 13.0104C92.5597 11.2273 94.8738 10.195 97.1293 10.195C99.3556 10.195 100.908 10.9771 101.523 12.4473C101.845 13.2294 101.963 14.293 101.963 16.2326V25.6799H99.297V16.0449C99.297 13.4797 98.6233 12.6037 96.6021 12.6037C94.8152 12.6037 92.5011 13.855 91.1244 15.5443V25.6799H88.4588V16.1074C88.4588 13.4484 87.785 12.6037 85.7931 12.6037C84.0063 12.6037 81.6922 13.855 80.3154 15.5443V25.6799H77.6498ZM105.821 33V10.6329H107.93L108.282 12.4473C109.863 10.8832 111.504 10.195 113.73 10.195C117.86 10.195 120.145 12.854 120.145 17.6715C120.145 22.9896 117.304 26.1178 112.471 26.1178C110.859 26.1178 109.483 25.8363 108.487 25.3358V32.4056L105.821 33ZM108.487 16.9833V22.927C109.453 23.5527 110.625 23.8655 112.031 23.8655C113.935 23.8655 115.429 23.1773 116.249 21.8947C116.982 20.8311 117.392 19.267 117.392 17.6403C117.392 14.3556 115.868 12.4473 113.203 12.4473C111.738 12.4473 110.303 13.073 109.395 14.1366C108.692 14.9812 108.487 15.6069 108.487 16.9833ZM123.208 25.6799V10.6329H125.317L125.698 13.3858C127.865 11.4463 130.15 10.5078 132.728 10.5078L132.523 12.9166C130.326 12.8853 127.66 14.1366 125.873 16.0136V25.6799H123.208ZM143.697 16.0449V15.3879C143.697 13.1981 142.731 12.3848 140.123 12.3848C138.278 12.3848 136.638 12.8853 134.939 13.9176L133.913 11.9468C136.696 10.5391 138.014 10.195 140.504 10.195C143.258 10.195 145.074 10.9458 145.865 12.3535C146.304 13.1981 146.422 13.9802 146.422 16.3577V25.6799H144.254L143.932 23.9281C142.819 25.3671 140.885 26.1178 138.307 26.1178C134.939 26.1178 133.123 24.5537 133.123 21.5819C133.123 18.8603 134.821 17.2336 138.366 16.5141C139.713 16.2638 140.621 16.17 143.697 16.0449ZM143.756 20.6747V17.9218C141.324 18.0157 140.534 18.1095 139.333 18.3285C137.018 18.7352 135.847 19.7988 135.847 21.4567C135.847 23.1147 136.901 23.9593 138.952 23.9593C140.504 23.9593 141.764 23.5527 142.789 22.708C143.522 22.1137 143.756 21.6131 143.756 20.6747ZM148.406 25.6799L148.318 23.7404L157.545 12.8853H149.401L149.636 10.6329H160.767L160.943 12.5725L151.716 23.4275H161.909L161.675 25.6799H148.406ZM174.606 10.9458V3.56309L177.272 3V25.6799H175.192L174.811 23.8342C173.405 25.3671 171.648 26.1178 169.363 26.1178C165.203 26.1178 162.948 23.4901 162.948 18.7039C162.948 13.4171 165.906 10.195 170.71 10.195C172.234 10.195 173.581 10.4452 174.606 10.9458ZM174.606 19.3295V13.3545C173.64 12.7602 172.497 12.4473 171.091 12.4473C169.158 12.4473 167.781 13.1043 166.873 14.4182C166.112 15.5443 165.701 17.0146 165.701 18.7039C165.701 22.0198 167.195 23.8655 169.861 23.8655C171.355 23.8655 172.79 23.2398 173.698 22.1762C174.401 21.3316 174.606 20.706 174.606 19.3295ZM181.77 25.6799V10.6329H183.879L184.26 12.9479C186.281 11.0709 188.331 10.195 190.675 10.195C192.989 10.195 194.629 11.0083 195.244 12.4473C195.566 13.1981 195.713 14.3243 195.713 16.2326V25.6799H193.047V16.0449C193.047 13.4797 192.315 12.6037 190.147 12.6037C188.273 12.6037 185.871 13.855 184.435 15.5443V25.6799H181.77ZM200.305 25.6799V10.6329H202.971V25.6799H200.305ZM201.682 4.56413C202.678 4.56413 203.469 5.37747 203.469 6.34723C203.469 7.34828 202.649 8.13034 201.653 8.13034C200.657 8.13034 199.837 7.31699 199.837 6.34723C199.837 5.34619 200.657 4.56413 201.682 4.56413ZM207.704 25.6799V3.56309L210.37 3V16.5454L217.839 10.6329H221.208L213.035 17.0459L221.97 25.6799H218.601L210.37 17.6715V25.6799H207.704ZM223.836 25.6799V10.6329H226.502V25.6799H223.836ZM225.213 4.56413C226.209 4.56413 227 5.37747 227 6.34723C227 7.34828 226.18 8.13034 225.184 8.13034C224.188 8.13034 223.368 7.31699 223.368 6.34723C223.368 5.34619 224.188 4.56413 225.213 4.56413Z" fill="white"/>
</g>
<defs>
<linearGradient id="paint0_linear_804_197" x1="14.5" y1="3.99684" x2="24" y2="39.5" gradientUnits="userSpaceOnUse">
<stop stop-color="white"/>
<stop offset="1" stop-color="white" stop-opacity="0"/>
</linearGradient>
<clipPath id="clip0_804_197">
<rect width="227" height="37" fill="white"/>
</clipPath>
</defs>
</svg>
