<svg xmlns="http://www.w3.org/2000/svg" width="3179" height="323" viewBox="0 0 3179 323" fill="none">
<path fill-rule="evenodd" clip-rule="evenodd" d="M64.3968 1.71608C59.0745 8.13333 69.3352 38.3882 93.2807 86.881C98.561 97.5731 103.044 106.656 103.243 107.065C103.442 107.474 83.8547 127.662 59.7173 151.927C12.0842 199.811 9.27012 203.189 3.87882 218.975C-0.0129585 230.369 -0.633764 246.57 2.36729 258.423C11.3745 293.999 39.0398 316.185 76.538 317.9C83.5578 318.221 90.8325 317.959 94.9982 317.236C105.351 315.438 188.241 293.686 201.515 289.283C207.895 287.168 218.005 283.101 223.982 280.248C232.84 276.019 236.067 273.84 241.447 268.451C245.077 264.817 249.924 258.676 252.219 254.807C265.341 232.681 269.466 200.456 260.341 191.357C253.455 184.489 245.62 190.259 238.993 207.075C227.552 236.11 220.217 244.183 198.656 251.468C173.932 259.821 84.2605 279.89 75.7012 278.986C66.6941 278.035 49.4765 264.178 44.4191 253.809C40.9652 246.728 40.5593 237.314 43.4434 231.194C46.1355 225.483 48.5628 223.001 118.351 154.611C149.369 124.213 178.048 95.5873 182.081 90.9974L189.413 82.6531V62.8928C189.413 48.7314 189.749 42.9263 190.599 42.4029C192.983 40.9334 204.457 42.0849 215.734 44.9251C256.627 55.2244 300.401 82.1845 325.705 112.657C341.06 131.149 349.339 147.42 356.977 174.113C359.543 183.08 359.824 185.535 359.773 198.537C359.723 211.296 359.397 214.047 357.002 221.965C351.687 239.53 342.83 255.011 318.211 289.757C309.783 301.651 305.379 310.395 305.378 315.237C305.376 324.499 312.292 325.14 327.72 317.309C341.199 310.468 353.37 301.279 367.466 287.305C384.46 270.457 394.92 253.45 400.908 232.932C404.125 221.907 405.26 202.346 403.429 189.46C399.715 163.317 387.169 129.545 372.273 105.593C357.608 82.012 335.244 58.951 311.875 43.3121C278.125 20.7256 230.92 5.55726 180.14 0.984329C164.867 -0.391438 162.412 0.116998 157.522 5.67191C151.228 12.8199 148.316 25.9425 148.297 47.248C148.29 54.7898 148.027 60.9608 147.714 60.9608C147.4 60.9608 141.92 55.9043 135.538 49.7244C113.167 28.064 90.1337 9.78625 77.9485 4.02697C69.6931 0.12597 66.2092 -0.468202 64.3968 1.71608ZM1809.42 38.146C1801.13 39.3493 1788.86 42.6162 1781.66 45.5343C1761.96 53.5137 1745.12 70.4187 1738.9 88.4472C1737.82 91.5955 1736.93 94.7748 1736.93 95.5115C1736.93 96.5862 1740.76 96.8504 1756.39 96.8504H1775.86L1777.29 94.0949C1779.46 89.9237 1788.94 81.4238 1794.65 78.5367C1807.14 72.2281 1827.62 69.4975 1845.04 71.8194C1856.59 73.3576 1862.73 75.2817 1868.47 79.1638C1875.01 83.5872 1877.39 88.4442 1877.37 97.3488C1877.35 106.002 1874.56 111.508 1867.97 115.858C1859.93 121.174 1855.48 121.976 1831.15 122.515L1808.9 123.009V138.84V154.672H1828.27C1851.31 154.672 1862.48 156.266 1870.92 160.755C1879.86 165.505 1883.6 172.349 1882.59 182.104C1881.29 194.672 1872.88 202.555 1855.77 207.236C1846.55 209.758 1817.11 209.704 1807.9 207.149C1793.7 203.207 1781.37 194.33 1776.33 184.417L1773.88 179.596H1754.9H1735.93V182.12C1735.93 185.84 1739.65 196.263 1743.19 202.462C1747.55 210.098 1759.12 221.934 1767.71 227.553C1775.85 232.881 1786.86 237.419 1799.18 240.535C1809.49 243.143 1840.86 244.254 1854.2 242.484C1891.15 237.58 1914.8 220.152 1920.43 193.683C1925.68 168.987 1915 148.111 1892.71 139.493C1889.51 138.252 1886.89 137.01 1886.89 136.733C1886.9 136.456 1889.57 134.953 1892.83 133.393C1899.5 130.198 1908.42 121.547 1911.75 115.03C1916.7 105.36 1918.27 90.7152 1915.48 80.2694C1908 52.2536 1877.4 36.7702 1830.27 37.156C1822.09 37.2228 1812.71 37.6685 1809.42 38.146ZM559.174 45.7576C538.626 91.2646 472.325 239.464 472.325 239.888C472.325 240.198 480.945 240.33 491.48 240.181L510.635 239.91L519.665 219.722L528.694 199.534H579.234H629.775L638.772 219.953L647.769 240.37L668.013 240.39C679.147 240.4 688.257 240.136 688.257 239.801C688.257 238.358 598.791 40.4519 597.839 39.7909C597.259 39.3882 589.007 39.0522 579.499 39.0432L562.212 39.0283L559.174 45.7576ZM1576.12 40.7729C1574.3 44.2193 1487.01 239.188 1487.01 239.812C1487.01 240.164 1495.57 240.33 1506.03 240.181L1525.06 239.91L1534.15 219.722L1543.24 199.534L1593.85 199.553L1644.46 199.573L1653.45 219.99L1662.45 240.409H1682.8C1698.68 240.409 1703.04 240.134 1702.66 239.162C1700.34 233.241 1613.53 41.2235 1612.75 40.2744C1612 39.3652 1607.04 39.0283 1594.38 39.0283C1578.89 39.0283 1576.95 39.2137 1576.12 40.7729ZM737.241 140.202V240.409H754.73H772.218L772.474 159.906L772.73 79.404L805.72 160.156L838.709 240.907L851.813 241.184L864.916 241.461L897.161 162.427C914.896 118.957 930.013 82.2702 930.753 80.8994C931.892 78.7919 932.106 90.9076 932.14 159.408L932.18 240.409H950.674H969.168V140.201V39.9933L941.598 40.2585L914.027 40.5237L884.563 111.804C868.358 151.009 854.763 183.421 854.352 183.833C853.942 184.243 840.279 152.167 823.992 112.552L794.378 40.5237L765.81 40.2595L737.241 39.9943V140.202ZM1038.15 140.217V240.409H1057.14H1076.13V157.165V73.9209H1129.62H1183.1V157.165V240.409H1202.1H1221.09V140.217V40.0252H1129.62H1038.15V140.217ZM1291.07 140.157V240.409H1310.06H1329.06V202.091V163.772L1374.29 163.409C1417.03 163.065 1419.96 162.924 1427.32 160.88C1448.76 154.932 1463.1 141.848 1469.1 122.771C1472 113.552 1472.69 97.6439 1470.66 86.9897C1466.19 63.5229 1452.23 49.505 1426.64 42.7847C1418.84 40.738 1416.04 40.6403 1354.8 40.2794L1291.07 39.9046V140.157ZM2006.44 43.7637C2006.12 45.8204 2003.36 70.6061 2000.32 98.8442C1993 166.837 1990.26 182.165 1982.42 199.092L1978.98 206.513H1967.92H1956.86V246.414V286.314L1974.1 286.042L1991.35 285.769L1991.62 263.089L1991.88 240.409H2073.34H2154.8V263.338V286.268H2171.79H2188.78V246.417V206.566L2174.04 206.291L2159.29 206.014L2159.04 123.02L2158.78 40.0252H2082.9H2007.02L2006.44 43.7637ZM2235.77 140.217V240.409H2254.76H2273.76V198.537V156.666H2328.74H2383.72V198.537V240.409H2402.72H2421.71V140.217V40.0252H2402.72H2383.72V81.3979V122.771H2328.74H2273.76V81.3979V40.0252H2254.76H2235.77V140.217ZM2491.38 40.6682C2491 41.0461 2490.69 86.1413 2490.69 140.882V240.409H2510.02H2529.35L2585.25 166.512L2641.14 92.6154L2641.4 166.512L2641.66 240.409H2661.15H2680.64L2680.39 140.466L2680.13 40.5237L2661.14 40.2794L2642.14 40.0352L2604.67 89.6276C2584.06 116.904 2558.87 150.239 2548.69 163.707L2530.18 188.194L2529.68 114.358L2529.18 40.5237L2510.62 40.2535C2500.42 40.104 2491.76 40.2914 2491.38 40.6682ZM2749.61 140.217V240.409H2768.59H2787.58L2787.84 194.91L2788.1 149.412L2840.87 194.927L2893.64 240.442L2919.94 240.175L2946.24 239.91L2888.41 189.085C2856.6 161.13 2830.58 137.942 2830.58 137.555C2830.58 137.168 2854.54 116.123 2883.82 90.787C2913.09 65.451 2938.16 43.665 2939.53 42.373L2942 40.0252L2916.53 40.0322L2891.06 40.0392L2839.58 84.7975L2788.1 129.557L2787.84 84.7905L2787.58 40.0252H2768.59H2749.61V140.217ZM2989.53 140.195V240.409H3008.39H3027.25L3083.62 165.936L3139.99 91.4619L3140.24 165.936L3140.5 240.409H3159.49H3178.48L3178.23 140.466L3177.97 40.5237L3158.98 40.3063L3139.99 40.089L3084 114.192L3028.02 188.295L3027.52 114.409L3027.02 40.5237L3008.28 40.2525L2989.53 39.9813V140.195ZM1409.56 75.0066C1416.02 76.1979 1423.56 79.6204 1426.24 82.5723C1430.08 86.8123 1432.42 94.1168 1432.42 101.835C1432.42 114.158 1427.83 121.561 1417.03 126.658L1411.53 129.251L1370.29 129.551L1329.06 129.852V101.886V73.9209H1366.36C1389 73.9209 1405.98 74.3476 1409.56 75.0066ZM2120.81 140.217V206.513H2069.32C2038.77 206.513 2017.84 206.141 2017.84 205.599C2017.84 205.096 2018.74 202.582 2019.85 200.013C2025.31 187.303 2028.46 169.23 2033.82 119.78C2036.05 99.2181 2038.14 80.4887 2038.47 78.1579L2039.06 73.9209H2079.93H2120.81V140.217ZM597.221 126.539C606.603 147.527 614.28 165.136 614.28 165.669C614.28 166.275 601.24 166.636 579.291 166.636C552.05 166.636 544.302 166.36 544.302 165.395C544.302 163.143 578.776 86.9837 579.477 87.6876C579.854 88.0664 587.839 105.55 597.221 126.539ZM1611.89 126.597C1621.28 147.618 1628.96 165.226 1628.96 165.726C1628.96 166.257 1614.14 166.636 1593.36 166.636C1565.29 166.636 1557.87 166.372 1558.26 165.389C1563.21 152.941 1593.54 87.0625 1594.08 87.6128C1594.48 88.0325 1602.5 105.576 1611.89 126.597Z" fill="black"/>
</svg>