<svg width="28" height="28" viewBox="0 0 28 28" fill="none" xmlns="http://www.w3.org/2000/svg">
<path d="M23.2111 4.78306C22.013 3.5794 20.5863 2.62502 19.0138 1.97554C17.4414 1.32606 15.7548 0.994458 14.0523 1.00007C6.91859 1.00007 1.10452 6.78505 1.10452 13.883C1.10452 16.158 1.70553 18.368 2.82915 20.318L1 27L7.8593 25.206C9.75377 26.233 11.8834 26.779 14.0523 26.779C21.1859 26.779 27 20.994 27 13.896C27 10.451 25.6543 7.21405 23.2111 4.78306ZM14.0523 24.595C12.1186 24.595 10.2241 24.075 8.56482 23.1L8.17286 22.866L4.09648 23.932L5.1809 19.98L4.9196 19.577C3.84504 17.8702 3.27458 15.8971 3.27337 13.883C3.27337 7.98105 8.10754 3.17106 14.0392 3.17106C16.9136 3.17106 19.6181 4.28906 21.6432 6.31706C22.6461 7.31008 23.4409 8.49136 23.9814 9.79237C24.5219 11.0934 24.7974 12.4882 24.792 13.896C24.8181 19.798 19.9839 24.595 14.0523 24.595ZM19.9578 16.587C19.6312 16.431 18.0372 15.651 17.7497 15.534C17.4492 15.43 17.2402 15.378 17.0181 15.69C16.796 16.015 16.1819 16.743 15.999 16.951C15.8161 17.172 15.6201 17.198 15.2935 17.029C14.9668 16.873 13.9216 16.522 12.6935 15.43C11.7266 14.572 11.0864 13.519 10.8905 13.194C10.7075 12.869 10.8643 12.7 11.0342 12.531C11.1779 12.388 11.3608 12.154 11.5176 11.972C11.6744 11.79 11.7397 11.647 11.8442 11.439C11.9487 11.218 11.8965 11.036 11.8181 10.88C11.7397 10.724 11.0864 9.13805 10.8251 8.48805C10.5638 7.86405 10.2894 7.94205 10.0935 7.92905H9.46633C9.24422 7.92905 8.90452 8.00705 8.60402 8.33205C8.31658 8.65705 7.4804 9.43705 7.4804 11.023C7.4804 12.609 8.64322 14.143 8.8 14.351C8.95678 14.572 11.0864 17.822 14.3266 19.213C15.0975 19.551 15.6985 19.746 16.1688 19.889C16.9397 20.136 17.6452 20.097 18.207 20.019C18.8342 19.928 20.1276 19.239 20.3889 18.485C20.6633 17.731 20.6633 17.094 20.5719 16.951C20.4804 16.808 20.2844 16.743 19.9578 16.587Z" fill="white"/>
</svg>
